<svg width="144" height="32" viewBox="0 0 144 32" fill="none" xmlns="http://www.w3.org/2000/svg">
<g clip-path="url(#clip0_326_1148)">
<path d="M45.9032 11.7458H47.5771C47.9046 11.7458 48.1714 12.0119 48.1714 12.3386V12.8982H48.3443C48.8841 11.9575 49.7877 11.4977 51.0553 11.4977C52.1318 11.4977 52.9961 11.8425 53.6693 12.5534C54.3425 13.2642 54.67 14.1443 54.67 15.2V21.1859C54.67 21.5125 54.4031 21.7787 54.0756 21.7787H52.4017V15.7384C52.4017 15.1243 52.2107 14.6253 51.8255 14.223C51.4404 13.8207 50.9613 13.6271 50.3821 13.6271C49.7483 13.6271 49.2298 13.8389 48.8052 14.2593C48.3837 14.6797 48.1714 15.2181 48.1714 15.8503V21.1828C48.1714 21.5095 47.9046 21.7757 47.5771 21.7757H45.9032V11.7458Z" fill="white"/>
<path d="M39.4623 22.0781C37.943 22.0781 36.7088 21.5791 35.7688 20.5991C34.8257 19.6191 34.3435 18.3517 34.3435 16.797C34.3435 15.2423 34.8439 13.975 35.8264 12.9768C36.8089 11.9787 38.0006 11.4796 39.4047 11.4796C40.9239 11.4796 42.1369 11.9605 43.0224 12.9375C43.9078 13.9175 44.3506 15.1637 44.3506 16.679V16.7214C44.3506 17.0481 44.0837 17.3142 43.7562 17.3142H36.7088C36.727 18.1581 36.9787 18.8296 37.4791 19.3287C37.9794 19.8278 38.6526 20.0788 39.4805 20.0788C40.0566 20.0788 40.5782 19.9246 41.0391 19.6372C41.5001 19.3499 41.8276 18.9264 42.0004 18.388L44.0776 18.8871C43.7501 19.9034 43.174 20.6717 42.3461 21.2101C41.5183 21.7484 40.557 22.0751 39.4592 22.0751L39.4623 22.0781ZM41.9822 15.7232C41.9246 15.0518 41.6547 14.5134 41.1544 14.1111C40.654 13.7088 40.0566 13.4971 39.344 13.4971C38.6314 13.4971 38.034 13.7088 37.5336 14.1504C37.0333 14.592 36.7452 15.1092 36.6876 15.7232H41.9822Z" fill="white"/>
<path d="M131.112 22.0781C129.592 22.0781 128.358 21.5791 127.418 20.5991C126.475 19.6191 125.993 18.3517 125.993 16.797C125.993 15.2423 126.493 13.975 127.476 12.9768C128.458 11.9787 129.65 11.4796 131.054 11.4796C132.573 11.4796 133.786 11.9605 134.672 12.9375C135.557 13.9175 136 15.1637 136 16.679V16.7214C136 17.0481 135.733 17.3142 135.406 17.3142H128.358C128.376 18.1581 128.628 18.8296 129.128 19.3287C129.629 19.8278 130.302 20.0788 131.13 20.0788C131.706 20.0788 132.228 19.9246 132.689 19.6372C133.15 19.3499 133.477 18.9264 133.65 18.388L135.727 18.8871C135.4 19.9034 134.823 20.6717 133.996 21.2101C133.168 21.7484 132.206 22.0751 131.109 22.0751L131.112 22.0781ZM133.632 15.7232C133.574 15.0518 133.304 14.5134 132.804 14.1111C132.303 13.7088 131.706 13.4971 130.993 13.4971C130.281 13.4971 129.683 13.7088 129.183 14.1504C128.683 14.592 128.395 15.1092 128.337 15.7232H133.632Z" fill="white"/>
<path d="M13.9413 22.0237C11.9611 22.0237 10.3084 21.2766 8.98018 19.9518C7.65501 18.63 7 16.9785 7 15.0034C7 13.0282 7.6732 11.3798 8.99838 10.058C10.3236 8.73618 11.9793 8.0647 13.9595 8.0647C15.9396 8.0647 17.5923 8.73618 18.9205 10.0791C20.2457 11.4221 20.9189 13.0706 20.9189 15.0457C20.9189 17.0208 20.2457 18.6693 18.9205 20.0123C17.5953 21.3552 15.9396 22.0267 13.9595 22.0267H13.9413V22.0237ZM13.9595 19.7431C15.2482 19.7431 16.3248 19.3015 17.189 18.4001C18.0532 17.4987 18.4778 16.3675 18.4778 15.0064C18.4778 13.6453 18.0563 12.514 17.189 11.6127C16.3248 10.7113 15.2482 10.2516 13.9595 10.2516C12.6707 10.2516 11.576 10.6932 10.7117 11.5945C9.84746 12.4959 9.42292 13.6271 9.42292 14.9882C9.42292 16.3494 9.84443 17.4806 10.7117 18.382C11.576 19.2833 12.6525 19.7431 13.9595 19.7431Z" fill="white"/>
<path d="M31.5749 13.0101C30.653 12.0119 29.5189 11.5129 28.1513 11.5129C26.9201 11.5129 25.9224 11.9938 25.1704 12.9708H24.9975V12.3537C24.9975 12.0271 24.7307 11.7609 24.4032 11.7609H22.7475L22.7293 25H24.4032C24.7307 25 24.9975 24.7338 24.9975 24.4072V16.7758C24.9975 15.8987 25.2492 15.1546 25.7678 14.5406C26.2863 13.9266 26.9595 13.6211 27.7874 13.6211C28.6152 13.6211 29.2672 13.9084 29.807 14.4831C30.3468 15.0578 30.6136 15.8261 30.6136 16.7637C30.6136 17.7014 30.3437 18.4334 29.807 19.0262C29.2733 19.616 28.6092 19.9034 27.8116 19.9064C27.0111 19.9034 26.3409 19.6342 25.8072 19.0837C25.7738 19.0474 25.7405 19.0111 25.7071 18.9748C25.6192 19.2682 25.4463 20.0546 25.8648 20.835C26.1923 21.449 26.817 21.8483 27.5054 21.9602C27.751 21.9995 28.0118 22.0176 28.2847 22.0176C29.6311 22.0176 30.747 21.5186 31.6295 20.5204C32.515 19.5223 32.9547 18.2761 32.9547 16.7607C32.9547 15.2453 32.4937 13.9992 31.5719 13.001L31.5749 13.0101Z" fill="white"/>
<path d="M64.3738 22.0055C62.3299 22.0055 60.6408 21.328 59.3066 19.9669C57.9723 18.6088 57.3021 16.9119 57.3021 14.8733C57.3021 12.8347 57.9693 11.1771 59.3066 9.81902C60.6408 8.46093 62.3299 7.78037 64.3738 7.78037C65.9324 7.78037 67.3001 8.20988 68.4797 9.07192C69.447 9.77063 70.1688 10.678 70.6449 11.7911C70.8086 12.1722 70.5327 12.5987 70.1172 12.5987H68.4039C68.0643 11.8032 67.5336 11.1832 66.8119 10.7385C66.078 10.2818 65.2653 10.0519 64.3768 10.0519C63.0152 10.0519 61.9145 10.5087 61.0775 11.4221C60.2254 12.3507 59.8008 13.5061 59.8008 14.8884C59.8008 16.2707 60.2254 17.4473 61.0775 18.3759C61.9145 19.2894 63.0152 19.7461 64.3768 19.7461C65.2532 19.7461 66.0598 19.5162 66.7937 19.0595C67.5123 18.6149 68.043 17.9948 68.3857 17.1993H70.099C70.5145 17.1993 70.7904 17.6228 70.6267 18.0069C70.1475 19.1381 69.4319 20.0455 68.4827 20.7261C67.291 21.576 65.9233 21.9995 64.3768 21.9995L64.3738 22.0055Z" fill="white"/>
<path d="M72.6827 21.7333V19.6947H74.6083V9.09612H72.6827V7.03932H76.3458C76.6673 7.03932 76.925 7.29945 76.925 7.61704V19.6947H78.2714C78.5899 19.6947 78.8476 19.9518 78.8476 20.2694V21.7303H72.6796L72.6827 21.7333Z" fill="white"/>
<path d="M81.9346 21.7333V13.5061H80.1273V11.4675H83.6783C83.9937 11.4675 84.2514 11.7246 84.2514 12.0392V21.7333H81.9346ZM84.1544 9.46816C83.8784 9.7434 83.5327 9.87952 83.1143 9.87952C82.6958 9.87952 82.347 9.7434 82.0741 9.46816C81.7982 9.19291 81.6617 8.84809 81.6617 8.43068C81.6617 8.01328 81.7982 7.68661 82.0741 7.41136C82.3501 7.13611 82.6958 7 83.1143 7C83.5327 7 83.8815 7.13611 84.1544 7.41136C84.4303 7.68661 84.5668 8.02537 84.5668 8.43068C84.5668 8.83599 84.4303 9.19593 84.1544 9.46816Z" fill="white"/>
<path d="M87.4324 21.7333L87.4506 11.4675H89.1943C89.5127 11.4675 89.7705 11.7246 89.7705 12.0422V12.6259H89.9463C90.4952 11.6853 91.3746 11.2164 92.5785 11.2164C93.9401 11.2164 94.9226 11.773 95.526 12.883H95.7019C96.3448 11.773 97.3516 11.2164 98.7253 11.2164C99.7987 11.2164 100.681 11.5703 101.376 12.2751C102.07 12.995 102.416 13.8751 102.416 14.9187V21.1617C102.416 21.4792 102.158 21.7363 101.84 21.7363H100.078V15.6839C100.078 14.9519 99.9018 14.3924 99.547 13.9992C99.1953 13.6059 98.7222 13.4124 98.1339 13.4124C97.5456 13.4124 97.0544 13.615 96.6602 14.0203C96.2659 14.4377 96.0719 14.9943 96.0719 15.6869V21.1647C96.0719 21.4823 95.8141 21.7394 95.4957 21.7394H93.7551V15.4117C93.7551 14.7977 93.5701 14.3137 93.2062 13.9629C92.8272 13.609 92.3541 13.4335 91.7931 13.4335C91.2321 13.4335 90.7317 13.6362 90.3406 14.0415C89.9463 14.4468 89.7523 14.9822 89.7523 15.6476V21.1647C89.7523 21.4823 89.4945 21.7394 89.1761 21.7394H87.4355L87.4324 21.7333Z" fill="white"/>
<path d="M115.358 19.8187C115.043 19.8187 114.885 19.6614 114.885 19.365V11.9817C114.885 11.6913 114.649 11.4554 114.357 11.4554H112.55V12.7167H112.371C111.64 11.7095 110.591 11.1983 109.227 11.1983C107.862 11.1983 106.695 11.7125 105.785 12.7379C104.875 13.7632 104.42 15.0639 104.42 16.6246C104.42 18.1853 104.875 19.4829 105.803 20.5113C106.731 21.5367 107.898 22.0509 109.302 22.0509C109.487 22.0509 109.669 22.0418 109.839 22.0237C110.594 21.9451 111.289 21.5276 111.665 20.8683C112.147 20.0213 111.938 19.1563 111.847 18.875C111.834 18.8871 111.825 18.9022 111.813 18.9143C111.28 19.5253 110.588 19.8217 109.736 19.8217H109.715C108.866 19.8217 108.171 19.5253 107.619 18.9536C107.064 18.382 106.789 17.6137 106.789 16.6458C106.789 15.6779 107.064 14.9308 107.619 14.3379C108.174 13.7451 108.866 13.4517 109.715 13.4517C110.564 13.4517 111.237 13.7481 111.792 14.3198C112.347 14.8914 112.587 15.6809 112.587 16.67C112.587 17.7921 112.587 17.1932 112.587 17.2235V20.472C112.626 20.8471 112.765 21.1617 113.02 21.4188C113.278 21.6759 113.615 21.7938 114.048 21.7938H115.807V19.8217H115.352L115.358 19.8187Z" fill="white"/>
<path d="M123.898 11.4826V13.6392H121.748C121.42 13.6392 121.153 13.9054 121.153 14.2321V17.7226C121.153 18.9264 121.763 19.5616 122.918 19.5616H123.822V21.7424L122.554 21.7515C120.228 21.7212 118.839 20.3026 118.839 17.9373V13.6362H116.862V11.4826L117.675 11.4766C118.512 11.4766 118.87 11.2467 118.87 10.312V8.29155H120.495C120.823 8.29155 121.09 8.55772 121.09 8.88439V11.4766H123.895L123.898 11.4826Z" fill="white"/>
</g>
<defs>
<clipPath id="clip0_326_1148">
<rect width="144" height="32" fill="white"/>
</clipPath>
</defs>
</svg>
