<svg width="80" height="18" viewBox="0 0 80 18" fill="none" xmlns="http://www.w3.org/2000/svg">
<path d="M44.5625 6.76196H45.5801C45.6759 6.76196 45.7678 6.80047 45.8355 6.86901C45.9033 6.93755 45.9413 7.03051 45.9413 7.12745V7.47191H46.0469C46.3738 6.89262 46.9228 6.60938 47.693 6.60938C48.3467 6.60938 48.8722 6.82135 49.2812 7.25902C49.6902 7.69668 49.8889 8.23943 49.8889 8.88998V12.5777C49.8889 12.6746 49.8509 12.7676 49.7832 12.8361C49.7154 12.9047 49.6235 12.9432 49.5277 12.9432H48.511V9.21983C48.5165 9.04848 48.4884 8.87773 48.4282 8.71745C48.3681 8.55717 48.2772 8.41054 48.1607 8.28602C48.0485 8.16599 47.9125 8.07137 47.7615 8.00838C47.6105 7.94539 47.4481 7.91545 47.2848 7.92054C47.1072 7.91554 46.9305 7.94758 46.7657 8.01471C46.6009 8.08183 46.4515 8.18258 46.3268 8.31069C46.2002 8.43912 46.1008 8.59226 46.0346 8.7608C45.9683 8.92935 45.9365 9.10977 45.9413 9.2911V12.5804C45.9413 12.6774 45.9033 12.7703 45.8355 12.8388C45.7678 12.9075 45.6759 12.9459 45.5801 12.9459H44.5625V6.76196Z" fill="white"/>
<path d="M65.2065 6.76222H66.2115C66.3073 6.76222 66.3992 6.80072 66.467 6.86927C66.5347 6.93781 66.5727 7.03077 66.5727 7.1277V7.67592H66.663C66.8053 7.37576 67.0233 7.11889 67.295 6.93125C67.5798 6.72101 67.924 6.60919 68.2765 6.61237H68.3713C68.4671 6.61237 68.559 6.65087 68.6268 6.71941C68.6945 6.78796 68.7325 6.88092 68.7325 6.97785V8.0076H68.1257C67.6237 8.0076 67.2381 8.17298 66.9691 8.50374C66.6982 8.8345 66.5727 9.29501 66.5727 9.88618V12.9471H65.2065V6.76222Z" fill="white"/>
<path d="M74.5923 4.66992H75.609C75.7048 4.66992 75.7967 4.70843 75.8644 4.77696C75.9321 4.84551 75.9702 4.93847 75.9702 5.0354V7.47133H76.0749C76.2388 7.21099 76.4636 6.99568 76.7295 6.84454C77.0364 6.67294 77.3831 6.58745 77.7336 6.59693C78.3991 6.59693 78.9363 6.80982 79.3444 7.24657C79.7563 7.68568 79.9792 8.2723 79.9638 8.87754V12.9307H78.586V9.2083C78.5924 9.03682 78.5638 8.86586 78.5023 8.70599C78.4408 8.54611 78.3474 8.40072 78.228 8.27883C78.1087 8.15694 77.9659 8.06116 77.8084 7.99738C77.6511 7.93361 77.4823 7.90321 77.3128 7.90809C77.1375 7.90613 76.9635 7.93966 76.801 8.00671C76.6386 8.07376 76.4911 8.17297 76.3671 8.29852C76.2431 8.42407 76.1452 8.57343 76.0791 8.73782C76.0129 8.90221 75.9798 9.07832 75.9819 9.25581V12.9426H74.5923V4.66992Z" fill="white"/>
<path d="M73.5903 6.63347V7.95926H72.2856C72.1898 7.95926 72.0979 7.99777 72.0301 8.0663C71.9624 8.13485 71.9244 8.22781 71.9244 8.32474V10.4747C71.9244 11.2166 72.2955 11.6095 72.9971 11.6095H73.547V12.9572L72.7768 12.9627C71.3646 12.9435 70.5194 12.07 70.5194 10.6127V7.95926H69.6318V6.63347H69.8124C70.3208 6.63347 70.5348 6.49185 70.5348 5.9153V4.66992H71.5217C71.6175 4.66992 71.7093 4.70843 71.777 4.77696C71.8447 4.84551 71.8829 4.93847 71.8829 5.0354V6.63347H73.5903Z" fill="white"/>
<path d="M40.6509 13.1292C39.7272 13.1292 38.9796 12.8222 38.4062 12.2155C37.8329 11.6088 37.5439 10.8349 37.5439 9.87827C37.5439 8.92162 37.8482 8.14222 38.4469 7.52456C38.7254 7.22741 39.0618 6.99185 39.4348 6.83271C39.8077 6.67357 40.2091 6.59429 40.6139 6.59989C41.5376 6.59989 42.2735 6.89594 42.8117 7.49898C43.3498 8.10203 43.618 8.86954 43.618 9.80517V9.83076C43.618 9.9277 43.5799 10.0206 43.5122 10.0892C43.4444 10.1578 43.3526 10.1962 43.2568 10.1962H38.9796C38.9913 10.7161 39.143 11.13 39.4473 11.438C39.7516 11.7459 40.1597 11.8948 40.6627 11.8948C40.9975 11.8967 41.3259 11.8016 41.609 11.6207C41.8892 11.4445 42.0971 11.1715 42.1941 10.8523L43.4582 11.1593C43.2862 11.7475 42.9134 12.255 42.4062 12.5911C41.8862 12.939 41.2762 13.124 40.6527 13.1228L40.6509 13.1292ZM42.1859 9.21401C42.1756 9.02201 42.1255 8.83437 42.0388 8.66325C41.9523 8.49214 41.831 8.34139 41.683 8.2208C41.3723 7.96741 40.983 7.83342 40.5841 7.84253C40.1807 7.83046 39.7877 7.9742 39.4853 8.24456C39.1945 8.48662 39.0099 8.83499 38.9715 9.21401H42.1859Z" fill="white"/>
<path d="M25.1494 13.0955C24.5877 13.1004 24.0308 12.9896 23.5127 12.7697C22.9947 12.5498 22.5264 12.2254 22.1363 11.8163C21.3309 11.0013 20.9336 9.98891 20.9336 8.76729C20.9336 7.54567 21.3426 6.53419 22.148 5.71917C22.9535 4.90414 23.9539 4.49023 25.1611 4.49023C26.3684 4.49023 27.3679 4.90323 28.1733 5.73105C28.9787 6.55886 29.3878 7.57399 29.3878 8.79105C29.3878 10.0081 28.9796 11.0241 28.1733 11.852C27.367 12.6798 26.3675 13.0928 25.1611 13.0928L25.1494 13.0955ZM25.1611 11.6893C25.5272 11.699 25.8912 11.6303 26.2292 11.4876C26.5672 11.3449 26.8716 11.1316 27.1223 10.8615C27.6478 10.3069 27.9052 9.60881 27.9052 8.77003C27.9052 7.93125 27.6478 7.23409 27.1223 6.67856C26.8721 6.40701 26.5681 6.19193 26.2301 6.0474C25.8922 5.90286 25.5279 5.83211 25.1611 5.83978C24.3666 5.83978 23.7164 6.11389 23.1873 6.66668C22.6582 7.21947 22.4054 7.91937 22.4054 8.75815C22.4054 9.59693 22.6618 10.295 23.1873 10.8496C23.4392 11.1225 23.7453 11.3383 24.0856 11.4829C24.4257 11.6276 24.7922 11.698 25.1611 11.6893Z" fill="white"/>
<path d="M56.8259 6.01125V4.97876C56.8259 4.88183 56.7877 4.78887 56.72 4.72033C56.6523 4.65178 56.5604 4.61328 56.4647 4.61328H51.792V12.9417H56.8259V11.9092C56.8259 11.8123 56.7877 11.7194 56.72 11.6508C56.6523 11.5822 56.5604 11.5437 56.4647 11.5437H53.2331V9.35085H55.9202V8.32475C55.9202 8.22782 55.8821 8.13486 55.8144 8.06631C55.7467 7.99778 55.6547 7.95927 55.559 7.95927H53.2322V6.01125H56.8259Z" fill="white"/>
<path d="M63.944 11.7721C63.7571 11.7721 63.6641 11.6808 63.6641 11.498V7.0766C63.6638 6.99316 63.6308 6.91321 63.5725 6.85428C63.5141 6.79537 63.435 6.76228 63.3525 6.76228H62.2844V7.51883H62.1787C61.7471 6.91579 61.1277 6.60513 60.3223 6.60513C59.9373 6.59657 59.5553 6.67478 59.2039 6.83407C58.8526 6.99337 58.5406 7.22977 58.2907 7.52614C57.7489 8.14107 57.4844 8.92046 57.4844 9.85426C57.4844 10.7881 57.7553 11.5675 58.3024 12.1824C58.5593 12.4796 58.8775 12.7163 59.2346 12.8756C59.5917 13.0349 59.9791 13.113 60.3693 13.1043C60.4753 13.1045 60.5814 13.099 60.6871 13.0879C60.908 13.067 61.1209 12.9934 61.3081 12.873C61.4954 12.7525 61.6518 12.5888 61.7643 12.3953C61.8607 12.2138 61.92 12.0144 61.9384 11.8092C61.9568 11.6041 61.9341 11.3971 61.8717 11.2011C61.8656 11.2094 61.8589 11.2173 61.8519 11.2248C61.7013 11.4035 61.5128 11.5456 61.3005 11.6406C61.0883 11.7354 60.8577 11.7807 60.6257 11.773H60.614C60.3831 11.7791 60.1536 11.7359 59.9404 11.6463C59.7271 11.5567 59.5348 11.4228 59.376 11.2531C59.0492 10.9108 58.8857 10.45 58.8857 9.87071C58.8857 9.30357 59.0492 8.84279 59.376 8.48827C59.5325 8.31485 59.724 8.1776 59.9376 8.08582C60.1513 7.99406 60.3819 7.94995 60.614 7.9565C60.8428 7.95172 61.0702 7.99551 61.2814 8.08505C61.4926 8.1746 61.6829 8.3079 61.8401 8.4764C62.167 8.81904 62.3088 9.29234 62.3088 9.8835C62.3088 10.556 62.3088 10.1969 62.3088 10.2161V12.1623C62.3255 12.3763 62.4167 12.5773 62.5661 12.7297C62.6467 12.807 62.7422 12.8668 62.8465 12.9052C62.9509 12.9438 63.062 12.9602 63.1729 12.9536H64.2121V11.7721H63.944Z" fill="white"/>
<path d="M35.859 7.54102C35.5991 7.24478 35.279 7.00904 34.9204 6.85005C34.5619 6.69104 34.1736 6.61257 33.7823 6.62C33.4312 6.61003 33.0829 6.68659 32.7675 6.84305C32.4521 6.99952 32.1791 7.23121 31.9719 7.51818H31.8671V7.13625C31.8671 7.03931 31.8291 6.94635 31.7613 6.87781C31.6936 6.80927 31.6018 6.77076 31.506 6.77076H30.501L30.4893 14.9292H31.5069C31.6027 14.9292 31.6945 14.8908 31.7622 14.8222C31.83 14.7536 31.868 14.6607 31.868 14.5638V12.1616V9.86366C31.8532 9.36249 32.0192 8.87309 32.3349 8.4867C32.4831 8.30393 32.6706 8.1578 32.8831 8.05946C33.0956 7.96114 33.3275 7.9132 33.561 7.91929C33.7911 7.91398 34.0196 7.9587 34.2312 8.05045C34.4428 8.14218 34.6324 8.27881 34.7872 8.45107C35.1141 8.80559 35.2775 9.27797 35.2775 9.85726C35.2775 10.4366 35.1114 10.8824 34.7845 11.2479C34.6339 11.4233 34.4473 11.5632 34.2376 11.6578C34.028 11.7526 33.8005 11.7997 33.571 11.7961C33.3442 11.8022 33.1186 11.7601 32.9088 11.6726C32.699 11.5852 32.5097 11.4541 32.3529 11.2881C32.3321 11.2662 32.3123 11.2443 32.2933 11.2214C32.1772 11.6014 32.2115 12.0123 32.389 12.3672C32.4908 12.5522 32.6334 12.7109 32.8056 12.831C32.9778 12.9512 33.1752 13.0295 33.3823 13.0598C33.5391 13.0844 33.6976 13.0966 33.8563 13.0963C34.2413 13.1046 34.6233 13.0262 34.9746 12.8667C35.326 12.7073 35.6379 12.4708 35.8879 12.1744C36.4251 11.5595 36.6933 10.792 36.6933 9.85818C36.6933 8.92437 36.4197 8.15594 35.859 7.54102Z" fill="white"/>
<path d="M15.1214 2.62561C13.6724 1.1592 11.7658 0.246563 9.72641 0.043213C7.68697 -0.160137 5.64098 0.358378 3.937 1.51041C2.23303 2.66243 0.976506 4.3767 0.381535 6.36111C-0.213434 8.34553 -0.11004 10.4773 0.674097 12.3932C1.45823 14.3092 2.8746 15.8907 4.68186 16.8683C6.48912 17.8459 8.57546 18.1592 10.5854 17.7548C12.5953 17.3503 14.4045 16.2532 15.7047 14.6503C17.0048 13.0472 17.7155 11.0377 17.7156 8.96399C17.7186 7.78642 17.4908 6.61995 17.0456 5.532C16.6003 4.44405 15.9463 3.45622 15.1214 2.62561ZM0.884879 9.30389C0.923368 8.33426 1.15397 7.38235 1.56299 6.50465C1.97201 5.62694 2.55111 4.84133 3.26591 4.19444C4.7027 2.86461 6.59971 2.1617 8.54538 2.2382C10.0713 2.29931 11.5111 2.97049 12.5485 4.10448C13.586 5.23847 14.1366 6.74264 14.0795 8.28693C14.034 9.489 13.5256 10.6254 12.6628 11.4528C11.8 12.2804 10.6514 12.7333 9.46275 12.7147H9.37878C8.94447 12.6809 8.39368 12.532 8.03883 12.0103C8.01716 11.9801 7.99729 11.9482 7.97833 11.9189L7.96479 11.8979C6.97968 10.2313 8.5237 9.28561 8.5237 8.15901C8.5237 6.91729 7.62077 6.45587 7.1693 6.38917C5.37878 6.12145 4.86411 7.91413 4.78917 8.60855C4.71606 9.29256 4.81548 9.98414 5.0781 10.6187C5.25981 11.0529 5.52219 11.4478 5.85102 11.7819C6.78737 12.7309 8.05186 13.2742 9.37698 13.2968H9.46727H9.52777C10.8526 13.2959 12.1256 12.776 13.0799 11.8461C14.0342 10.9161 14.5957 9.64845 14.6465 8.30886C14.7095 6.61136 14.1051 4.95779 12.9655 3.71045C11.826 2.46312 10.2443 1.72375 8.56704 1.65434C8.46321 1.65434 8.36027 1.64886 8.25643 1.64886C6.26624 1.6485 4.34803 2.40212 2.87947 3.76135C2.60454 4.01383 2.3472 4.28524 2.10926 4.57363C2.97266 3.21389 4.21744 2.14586 5.68424 1.50627C7.15105 0.866676 8.77312 0.684633 10.3428 0.983445C11.9124 1.28226 13.3582 2.04833 14.4951 3.18358C15.6319 4.31883 16.408 5.77159 16.7242 7.35587C16.7722 7.77441 16.7963 8.19542 16.7964 8.61678C16.7579 9.58631 16.5274 10.5381 16.1186 11.4158C15.7097 12.2935 15.1308 13.0792 14.4163 13.7262C12.9795 15.056 11.0824 15.7589 9.1368 15.6825C7.61076 15.6213 6.17098 14.9502 5.13334 13.8162C4.09568 12.6823 3.5449 11.1781 3.60182 9.63373C3.64765 8.43247 4.15578 7.29694 5.01771 6.46963C5.87963 5.64232 7.02703 5.1888 8.2149 5.20592H8.29977C8.73409 5.23972 9.28488 5.39322 9.63973 5.91037C9.6605 5.94053 9.68036 5.97251 9.70023 6.00175C9.70023 6.00905 9.70926 6.01546 9.71287 6.02277C10.6989 7.68937 9.15485 8.63505 9.15485 9.76165C9.15485 11.0034 10.0578 11.4648 10.5093 11.5315C12.3007 11.7992 12.8154 10.0065 12.8903 9.31211C12.9626 8.62805 12.8629 7.93659 12.6005 7.30196C12.4194 6.86762 12.1573 6.47269 11.8284 6.1388C10.8918 5.18955 9.627 4.64626 8.30158 4.62389H8.14628C6.82149 4.62456 5.54844 5.14443 4.59425 6.0744C3.64005 7.00438 3.07887 8.27219 3.02844 9.61181C2.96543 11.3104 3.57091 12.965 4.71202 14.2124C5.85313 15.4598 7.43667 16.1981 9.11512 16.2654C9.21986 16.2654 9.3228 16.2709 9.42664 16.2709C10.642 16.2658 11.8405 15.9824 12.9323 15.442C14.024 14.9016 14.9808 14.1183 15.7309 13.1506C14.8769 14.586 13.6051 15.719 12.0896 16.394C10.5741 17.0689 8.88939 17.2529 7.26652 16.9206C5.64366 16.5883 4.16215 15.756 3.02525 14.538C1.88834 13.3198 1.15174 11.7756 0.916478 10.1171C0.895711 9.8512 0.884879 9.57983 0.884879 9.30389Z" fill="white"/>
</svg>
