<svg width="34" height="22" viewBox="0 0 34 22" fill="none" xmlns="http://www.w3.org/2000/svg">
<path opacity="0.21" fill-rule="evenodd" clip-rule="evenodd" d="M32.1211 10C32.1211 13.3137 29.4348 16 26.1211 16L17.4544 16C14.1407 16 11.4544 13.3137 11.4544 10C11.4544 6.68629 14.1407 4 17.4544 4L26.1211 4C29.4348 4 32.1211 6.68629 32.1211 10Z" fill="#007568"/>
<g filter="url(#filter0_ddd_152_321)">
<path fill-rule="evenodd" clip-rule="evenodd" d="M19.9082 10C19.9082 14.4183 16.3265 18 11.9082 18C7.48992 18 3.9082 14.4183 3.9082 10C3.9082 5.58172 7.48993 2 11.9082 2C16.3265 2 19.9082 5.58172 19.9082 10Z" fill="#007568"/>
</g>
<defs>
<filter id="filter0_ddd_152_321" x="0.908203" y="0" width="22" height="22" filterUnits="userSpaceOnUse" color-interpolation-filters="sRGB">
<feFlood flood-opacity="0" result="BackgroundImageFix"/>
<feColorMatrix in="SourceAlpha" type="matrix" values="0 0 0 0 0 0 0 0 0 0 0 0 0 0 0 0 0 0 127 0" result="hardAlpha"/>
<feOffset dy="1"/>
<feGaussianBlur stdDeviation="1.5"/>
<feColorMatrix type="matrix" values="0 0 0 0 0.701961 0 0 0 0 0.717647 0 0 0 0 0.768627 0 0 0 0.2 0"/>
<feBlend mode="normal" in2="BackgroundImageFix" result="effect1_dropShadow_152_321"/>
<feColorMatrix in="SourceAlpha" type="matrix" values="0 0 0 0 0 0 0 0 0 0 0 0 0 0 0 0 0 0 127 0" result="hardAlpha"/>
<feOffset dy="2"/>
<feGaussianBlur stdDeviation="1"/>
<feColorMatrix type="matrix" values="0 0 0 0 0.701961 0 0 0 0 0.717647 0 0 0 0 0.768627 0 0 0 0.12 0"/>
<feBlend mode="normal" in2="effect1_dropShadow_152_321" result="effect2_dropShadow_152_321"/>
<feColorMatrix in="SourceAlpha" type="matrix" values="0 0 0 0 0 0 0 0 0 0 0 0 0 0 0 0 0 0 127 0" result="hardAlpha"/>
<feOffset/>
<feGaussianBlur stdDeviation="1"/>
<feColorMatrix type="matrix" values="0 0 0 0 0.701961 0 0 0 0 0.717647 0 0 0 0 0.768627 0 0 0 0.14 0"/>
<feBlend mode="normal" in2="effect2_dropShadow_152_321" result="effect3_dropShadow_152_321"/>
<feBlend mode="normal" in="SourceGraphic" in2="effect3_dropShadow_152_321" result="shape"/>
</filter>
</defs>
</svg>
