<?xml version="1.0" encoding="utf-8"?>
<!-- Generator: Adobe Illustrator 27.7.0, SVG Export Plug-In . SVG Version: 6.00 Build 0)  -->
<svg version="1.1" id="Layer_1" xmlns="http://www.w3.org/2000/svg" xmlns:xlink="http://www.w3.org/1999/xlink" x="0px" y="0px"
	 viewBox="0 0 124 20" style="enable-background:new 0 0 124 20;" xml:space="preserve">
<style type="text/css">
	.st0{fill:#FFFFFF;}
</style>
<g>
	<path class="st0" d="M38.19,6.03h1.56c0.31,0,0.55,0.25,0.55,0.55V7.1h0.16c0.5-0.88,1.34-1.31,2.52-1.31c1,0,1.81,0.32,2.43,0.98
		c0.63,0.66,0.93,1.48,0.93,2.47v5.58c0,0.31-0.25,0.55-0.55,0.55h-1.56V9.75c0-0.57-0.18-1.04-0.54-1.41
		c-0.36-0.38-0.8-0.55-1.34-0.55c-0.59,0-1.07,0.2-1.47,0.59C40.5,8.77,40.3,9.27,40.3,9.86v4.97c0,0.31-0.25,0.55-0.55,0.55h-1.56
		V6.03z"/>
	<path class="st0" d="M32.2,15.67c-1.41,0-2.56-0.47-3.44-1.38c-0.88-0.91-1.32-2.09-1.32-3.54c0-1.45,0.47-2.63,1.38-3.56
		c0.91-0.93,2.02-1.4,3.33-1.4c1.41,0,2.54,0.45,3.37,1.36c0.82,0.91,1.24,2.08,1.24,3.49v0.04c0,0.31-0.25,0.55-0.55,0.55h-6.55
		c0.02,0.79,0.25,1.41,0.72,1.88s1.09,0.7,1.86,0.7c0.54,0,1.02-0.14,1.45-0.41c0.43-0.27,0.73-0.66,0.9-1.16l1.93,0.47
		c-0.3,0.95-0.84,1.66-1.61,2.17C34.11,15.36,33.22,15.67,32.2,15.67L32.2,15.67z M34.54,9.74c-0.05-0.63-0.3-1.13-0.77-1.5
		c-0.47-0.38-1.02-0.57-1.68-0.57c-0.66,0-1.22,0.2-1.68,0.61c-0.47,0.41-0.73,0.9-0.79,1.47H34.54z"/>
	<path class="st0" d="M117.45,15.67c-1.41,0-2.56-0.47-3.44-1.38c-0.88-0.91-1.32-2.09-1.32-3.54c0-1.45,0.47-2.63,1.38-3.56
		c0.91-0.93,2.02-1.4,3.33-1.4c1.41,0,2.54,0.45,3.37,1.36c0.82,0.91,1.24,2.08,1.24,3.49v0.04c0,0.31-0.25,0.55-0.55,0.55h-6.55
		c0.02,0.79,0.25,1.41,0.72,1.88c0.47,0.47,1.09,0.7,1.86,0.7c0.54,0,1.02-0.14,1.45-0.41c0.43-0.27,0.73-0.66,0.9-1.16l1.93,0.47
		c-0.3,0.95-0.84,1.66-1.61,2.17C119.37,15.36,118.47,15.67,117.45,15.67L117.45,15.67z M119.8,9.74c-0.05-0.63-0.3-1.13-0.77-1.5
		c-0.47-0.38-1.02-0.57-1.68-0.57c-0.66,0-1.22,0.2-1.68,0.61c-0.47,0.41-0.73,0.9-0.79,1.47H119.8z"/>
	<path class="st0" d="M8.46,15.62c-1.84,0-3.38-0.7-4.61-1.93S2,10.91,2,9.07s0.63-3.38,1.86-4.61C5.09,3.22,6.63,2.6,8.47,2.6
		s3.38,0.63,4.61,1.88c1.23,1.25,1.86,2.79,1.86,4.63s-0.63,3.38-1.86,4.63c-1.23,1.25-2.77,1.88-4.61,1.88H8.46z M8.47,13.49
		c1.2,0,2.2-0.41,3-1.25c0.8-0.84,1.2-1.9,1.2-3.17s-0.39-2.32-1.2-3.17c-0.8-0.84-1.81-1.27-3-1.27c-1.22,0-2.22,0.41-3.02,1.25
		s-1.2,1.9-1.2,3.17s0.39,2.32,1.2,3.17C6.26,13.06,7.26,13.49,8.47,13.49L8.47,13.49z"/>
	<path class="st0" d="M24.86,7.21c-0.86-0.93-1.91-1.4-3.18-1.4c-1.14,0-2.07,0.45-2.77,1.36h-0.16V6.6c0-0.31-0.25-0.55-0.55-0.55
		h-1.54L16.63,18.4h1.56c0.31,0,0.55-0.25,0.55-0.55V14.2v0v-3.48l0,0c0-0.82,0.23-1.51,0.72-2.08c0.48-0.57,1.11-0.86,1.88-0.86
		c0.75,0,1.38,0.27,1.88,0.8c0.5,0.54,0.75,1.25,0.75,2.13c0,0.86-0.25,1.56-0.75,2.11c-0.5,0.55-1.11,0.82-1.86,0.82
		c-0.75,0-1.37-0.25-1.86-0.77c-0.03-0.03-0.06-0.07-0.09-0.1c-0.08,0.27-0.24,1.01,0.15,1.73c0.31,0.57,0.89,0.95,1.53,1.05
		c0.23,0.04,0.47,0.05,0.73,0.05c1.25,0,2.29-0.47,3.11-1.39c0.82-0.93,1.23-2.09,1.23-3.51C26.15,9.3,25.72,8.14,24.86,7.21z"/>
	<path class="st0" d="M55.37,15.6c-1.9,0-3.47-0.63-4.71-1.9c-1.24-1.27-1.86-2.85-1.86-4.75c0-1.88,0.62-3.45,1.86-4.71
		c1.24-1.27,2.81-1.9,4.71-1.9c1.45,0,2.72,0.4,3.82,1.21c0.9,0.65,1.57,1.5,2.01,2.54c0.15,0.36-0.1,0.75-0.49,0.75h-1.59
		c-0.32-0.74-0.81-1.32-1.48-1.74c-0.68-0.43-1.44-0.64-2.27-0.64c-1.27,0-2.29,0.43-3.07,1.28c-0.79,0.86-1.19,1.94-1.19,3.23
		c0,1.3,0.4,2.39,1.19,3.25c0.78,0.85,1.8,1.28,3.07,1.28c0.82,0,1.56-0.21,2.25-0.64c0.67-0.41,1.16-0.99,1.48-1.74h1.59
		c0.39,0,0.64,0.4,0.49,0.75c-0.45,1.06-1.11,1.9-1.99,2.54C58.08,15.2,56.81,15.6,55.37,15.6z"/>
	<path class="st0" d="M63.1,15.34v-1.9h1.79V3.56H63.1V1.64h3.41c0.3,0,0.54,0.24,0.54,0.54v11.26h1.25c0.3,0,0.54,0.24,0.54,0.54
		v1.36H63.1z"/>
	<path class="st0" d="M71.71,15.34V7.67h-1.68v-1.9h3.3c0.29,0,0.53,0.24,0.53,0.53v9.04H71.71z M73.77,3.91
		c-0.26,0.26-0.58,0.38-0.97,0.38c-0.39,0-0.71-0.13-0.97-0.38c-0.26-0.26-0.38-0.58-0.38-0.97c0-0.38,0.13-0.69,0.38-0.95
		c0.26-0.26,0.58-0.38,0.97-0.38c0.39,0,0.71,0.13,0.97,0.38c0.26,0.26,0.38,0.57,0.38,0.95C74.15,3.33,74.03,3.65,73.77,3.91z"/>
	<path class="st0" d="M76.82,15.34l0.02-9.57h1.62c0.3,0,0.53,0.24,0.53,0.53v0.54h0.16c0.51-0.88,1.33-1.32,2.45-1.32
		c1.27,0,2.18,0.52,2.74,1.55h0.16c0.6-1.04,1.53-1.55,2.81-1.55c1,0,1.82,0.33,2.47,0.99c0.65,0.67,0.97,1.49,0.97,2.47v5.82
		c0,0.3-0.24,0.54-0.54,0.54h-1.64V9.7c0-0.68-0.16-1.21-0.49-1.57c-0.33-0.37-0.77-0.55-1.32-0.55c-0.55,0-1,0.19-1.37,0.57
		c-0.37,0.39-0.55,0.91-0.55,1.55v5.11c0,0.3-0.24,0.54-0.54,0.54H82.7v-5.9c0-0.57-0.17-1.02-0.51-1.35
		C81.84,7.76,81.4,7.6,80.88,7.6c-0.54,0-0.99,0.19-1.35,0.57c-0.37,0.38-0.55,0.88-0.55,1.5v5.15c0,0.3-0.24,0.54-0.54,0.54H76.82z
		"/>
	<path class="st0" d="M102.8,13.56c-0.29,0-0.44-0.15-0.44-0.42V6.25c0-0.27-0.22-0.49-0.49-0.49h-1.68v1.18h-0.17
		C99.34,6,98.37,5.52,97.1,5.52c-1.29,0-2.35,0.48-3.2,1.43c-0.85,0.96-1.27,2.17-1.27,3.62c0,1.45,0.42,2.67,1.29,3.62
		c0.86,0.96,1.95,1.43,3.26,1.43c0.17,0,0.34-0.01,0.5-0.03c0.7-0.07,1.35-0.46,1.7-1.08c0.45-0.79,0.25-1.6,0.17-1.86
		c-0.01,0.01-0.02,0.03-0.03,0.04c-0.5,0.57-1.14,0.85-1.93,0.85h-0.02c-0.79,0-1.43-0.28-1.95-0.81c-0.51-0.53-0.77-1.25-0.77-2.15
		c0-0.88,0.26-1.6,0.77-2.15c0.52-0.55,1.16-0.83,1.95-0.83c0.77,0,1.42,0.28,1.93,0.81c0.52,0.53,0.74,1.27,0.74,2.19
		c0,1.05,0,0.49,0,0.52v3.03c0.04,0.35,0.17,0.64,0.4,0.88c0.24,0.24,0.55,0.35,0.96,0.35h1.64v-1.84H102.8z"/>
	<path class="st0" d="M110.74,5.78V7.8h-2c-0.31,0-0.55,0.25-0.55,0.55v3.25c0,1.12,0.57,1.72,1.64,1.72h0.84v2.04l-1.18,0.01
		c-2.16-0.03-3.46-1.35-3.46-3.56V7.8h-1.84c0,0,0,0,0,0V5.79l0.76,0c0.78,0,1.11-0.21,1.11-1.09V2.81h1.51
		c0.31,0,0.55,0.25,0.55,0.55v2.42H110.74z"/>
</g>
</svg>
