<?xml version="1.0" encoding="utf-8"?>
<!-- Generator: Adobe Illustrator 27.7.0, SVG Export Plug-In . SVG Version: 6.00 Build 0)  -->
<svg version="1.1" id="Layer_1" xmlns="http://www.w3.org/2000/svg" xmlns:xlink="http://www.w3.org/1999/xlink" x="0px" y="0px"
	 viewBox="0 0 303.01 263.66" style="enable-background:new 0 0 303.01 263.66;" xml:space="preserve">
<style type="text/css">
	.st0{fill:#506CE3;}
	.st1{fill:#00AA00;}
	.st2{fill:#1A1A1A;}
	.st3{fill:#2352DB;}
	.st4{fill:#000079;}
	.st5{fill:#FFFFFF;}
	.st6{fill:#2352DC;}
	.st7{fill:#008600;}
	.st8{fill:#0033B9;}
</style>
<g>
	<path class="st5" d="M240.02,43.32c-23.64-23.64-55.08-36.66-88.51-36.66c-33.43,0-64.87,13.02-88.51,36.66
		C39.35,66.96,26.33,98.4,26.33,131.83c0,33.43,13.02,64.87,36.66,88.51C86.64,243.98,118.07,257,151.51,257
		c33.43,0,64.87-13.02,88.51-36.66c23.64-23.64,36.66-55.08,36.66-88.51C276.68,98.4,263.66,66.96,240.02,43.32z M38.84,136.57
		c1.07-27.29,13.02-52.63,33.64-71.35c20.57-18.67,47.08-28.36,74.6-27.31c44.85,1.72,79.94,39.62,78.21,84.47
		c-0.65,16.89-7.76,32.59-20.03,44.21c-12.24,11.6-28.25,17.83-45.16,17.62h-1.2v0c-6.13-0.48-13.92-2.62-18.94-9.84
		c-0.3-0.43-0.58-0.87-0.85-1.32c-0.06-0.1-0.12-0.19-0.18-0.29c-13.93-23.28,7.9-36.48,7.9-52.22c0-17.34-12.77-23.78-19.13-24.71
		c-25.31-3.74-32.58,21.3-33.64,31c-1.01,9.26,0.26,18.89,4.09,28.11c2.52,6.06,6.27,11.53,10.92,16.24l-0.02,0.02
		c13.77,13.77,31.75,20.82,49.84,21.15c0.44,0.01,0.89,0.01,1.33,0.01l0-0.01c0.29,0,0.58,0.01,0.86,0.01
		c18.59,0,36.23-7.03,49.77-19.86c13.82-13.09,21.83-30.78,22.56-49.8c1.9-49.33-36.69-91.01-86.03-92.91
		c-1.47-0.06-2.93-0.09-4.39-0.09c-28.09,0-54.93,10.39-75.99,29.5c-3.93,3.57-7.55,7.37-10.88,11.35
		c20.2-31.33,55.4-52.11,95.37-52.11c54.85,0,100.72,39.14,111.16,90.96c0.67,5.72,1.03,11.58,1.03,17.61
		c-1.07,27.29-13.02,52.63-33.64,71.35c-20.57,18.67-47.08,28.36-74.6,27.31c-44.85-1.73-79.94-39.62-78.21-84.47
		C77.88,124.32,85,108.62,97.26,97c12.24-11.6,28.25-17.83,45.16-17.62h1.2v0c6.13,0.48,13.92,2.62,18.94,9.84
		c0.3,0.43,0.58,0.87,0.85,1.32c0.06,0.1,0.12,0.19,0.18,0.29c13.93,23.28-7.9,36.48-7.9,52.22c0,17.34,12.77,23.78,19.13,24.71
		c25.31,3.74,32.58-21.3,33.64-31c1.01-9.26-0.26-18.89-4.09-28.11c-2.52-6.06-6.27-11.52-10.92-16.24l0.02-0.02
		c-13.77-13.77-31.75-20.82-49.84-21.15c-0.44-0.01-0.89-0.01-1.33-0.01l0,0.01c-0.29,0-0.58-0.01-0.86-0.01
		c-18.59,0-36.23,7.03-49.77,19.86c-13.82,13.09-21.83,30.78-22.56,49.8c-1.9,49.33,36.69,91.01,86.03,92.91
		c1.47,0.06,2.93,0.09,4.39,0.09c28.09,0,54.93-10.39,75.99-29.5c4.82-4.37,9.19-9.08,13.1-14.07
		c-19.88,32.88-55.97,54.91-97.11,54.91c-57.05,0-104.39-42.36-112.24-97.27C38.99,144.22,38.84,140.43,38.84,136.57z"/>
</g>
</svg>
