<?xml version="1.0" encoding="utf-8"?>
<!-- Generator: Adobe Illustrator 27.7.0, SVG Export Plug-In . SVG Version: 6.00 Build 0)  -->
<svg version="1.1" id="Layer_1" xmlns="http://www.w3.org/2000/svg" xmlns:xlink="http://www.w3.org/1999/xlink" x="0px" y="0px"
	 viewBox="0 0 92 22" style="enable-background:new 0 0 92 22;" xml:space="preserve">
<style type="text/css">
	.st0{fill:#FFFFFF;}
</style>
<g>
	<path class="st0" d="M51.01,8.62h1.11c0.22,0,0.39,0.18,0.39,0.39v0.37h0.11c0.36-0.63,0.96-0.93,1.8-0.93
		c0.72,0,1.29,0.23,1.74,0.7c0.45,0.47,0.66,1.06,0.66,1.76v3.99c0,0.22-0.18,0.39-0.39,0.39h-1.11v-4.02
		c0-0.41-0.13-0.74-0.38-1.01c-0.26-0.27-0.57-0.4-0.96-0.4c-0.42,0-0.77,0.14-1.05,0.42c-0.28,0.28-0.42,0.64-0.42,1.06v3.55
		c0,0.22-0.18,0.39-0.39,0.39h-1.11V8.62z"/>
	<path class="st0" d="M73.6,8.62h1.1c0.22,0,0.39,0.18,0.39,0.39V9.6h0.1c0.14-0.31,0.37-0.57,0.69-0.8
		c0.32-0.23,0.68-0.34,1.07-0.34h0.1c0.22,0,0.39,0.18,0.39,0.39v1.11h-0.66c-0.55,0-0.97,0.18-1.26,0.54
		c-0.29,0.36-0.43,0.86-0.43,1.49v3.31H73.6V8.62z"/>
	<path class="st0" d="M83.87,6.36h1.11c0.22,0,0.39,0.18,0.39,0.39v2.63h0.11c0.17-0.27,0.41-0.5,0.72-0.68
		c0.31-0.18,0.68-0.27,1.1-0.27c0.73,0,1.32,0.23,1.76,0.7c0.45,0.47,0.68,1.06,0.68,1.76v4.38h-1.51v-4.02
		c0-0.41-0.13-0.74-0.4-1.01c-0.27-0.27-0.6-0.4-1-0.4c-0.41,0-0.75,0.14-1.03,0.42c-0.28,0.28-0.42,0.63-0.42,1.03v3.99h-1.52V6.36
		z"/>
	<path class="st0" d="M82.77,8.48v1.44h-1.43c-0.22,0-0.39,0.18-0.39,0.39v2.33c0,0.8,0.41,1.23,1.17,1.23h0.6v1.45l-0.84,0.01
		c-1.55-0.02-2.47-0.96-2.47-2.54V9.92h-0.97c0,0,0,0,0,0V8.48h0.2c0.56,0,0.79-0.15,0.79-0.78V6.36h1.08
		c0.22,0,0.39,0.18,0.39,0.39v1.73H82.77z"/>
	<path class="st0" d="M46.73,15.5c-1.01,0-1.83-0.33-2.46-0.98c-0.63-0.65-0.95-1.5-0.95-2.53c0-1.04,0.33-1.88,0.98-2.54
		c0.65-0.66,1.45-1,2.38-1c1.01,0,1.82,0.32,2.4,0.97c0.59,0.65,0.88,1.48,0.88,2.49v0.03c0,0.22-0.18,0.39-0.39,0.39H44.9
		c0.01,0.56,0.18,1.01,0.51,1.34c0.33,0.33,0.78,0.5,1.33,0.5c0.38,0,0.73-0.1,1.04-0.29c0.31-0.19,0.52-0.47,0.64-0.83l1.38,0.33
		c-0.22,0.68-0.6,1.19-1.15,1.55C48.1,15.29,47.46,15.5,46.73,15.5L46.73,15.5z M48.41,11.27c-0.04-0.45-0.22-0.81-0.55-1.07
		c-0.33-0.27-0.73-0.41-1.2-0.41s-0.87,0.14-1.2,0.43c-0.33,0.29-0.52,0.64-0.56,1.05H48.41z"/>
	<path class="st0" d="M29.77,15.47c-1.32,0-2.41-0.5-3.3-1.38c-0.88-0.88-1.32-1.98-1.32-3.3s0.45-2.41,1.33-3.3
		c0.88-0.88,1.98-1.33,3.3-1.33s2.41,0.45,3.3,1.34c0.88,0.89,1.33,1.99,1.33,3.31s-0.45,2.41-1.33,3.31
		c-0.88,0.89-1.98,1.34-3.3,1.34H29.77z M29.78,13.95c0.86,0,1.57-0.29,2.15-0.89c0.57-0.6,0.86-1.35,0.86-2.26
		c0-0.91-0.28-1.66-0.86-2.26c-0.57-0.6-1.29-0.91-2.15-0.91c-0.87,0-1.58,0.29-2.16,0.89c-0.57,0.6-0.86,1.35-0.86,2.26
		s0.28,1.66,0.86,2.26C28.2,13.64,28.92,13.95,29.78,13.95L29.78,13.95z"/>
	<g>
		<path class="st0" d="M64.43,7.81V6.69c0-0.22-0.18-0.39-0.39-0.39h-5.11v9l0,0h5.51v-1.12c0-0.22-0.18-0.39-0.39-0.39H60.5
			c0-0.65,0-1.5,0-2.37h2.94V10.3c0-0.22-0.18-0.39-0.39-0.39H60.5c0-0.94,0-1.74,0-2.1H64.43z"/>
	</g>
	<path class="st0" d="M72.22,14.04c-0.2,0-0.31-0.1-0.31-0.29V8.96c0-0.19-0.15-0.34-0.34-0.34H70.4v0.82h-0.12
		c-0.47-0.65-1.15-0.98-2.03-0.98c-0.89,0-1.64,0.33-2.22,1c-0.59,0.66-0.88,1.51-0.88,2.52c0,1.01,0.29,1.85,0.89,2.52
		c0.6,0.66,1.35,1,2.26,1c0.12,0,0.24-0.01,0.35-0.02c0.49-0.05,0.94-0.32,1.18-0.75c0.31-0.55,0.18-1.11,0.12-1.29
		c-0.01,0.01-0.01,0.02-0.02,0.03c-0.34,0.4-0.79,0.59-1.34,0.59h-0.01c-0.55,0-1-0.19-1.35-0.56c-0.36-0.37-0.54-0.87-0.54-1.49
		c0-0.61,0.18-1.11,0.54-1.49c0.36-0.38,0.8-0.57,1.35-0.57c0.54,0,0.98,0.19,1.34,0.56c0.36,0.37,0.51,0.88,0.51,1.52
		c0,0.73,0,0.34,0,0.36v2.1c0.03,0.24,0.12,0.45,0.28,0.61c0.17,0.17,0.38,0.24,0.66,0.24h1.14v-1.28H72.22z"/>
	<path class="st0" d="M41.49,9.46c-0.61-0.66-1.37-1-2.27-1c-0.82,0-1.48,0.32-1.98,0.97h-0.11V9.03c0-0.22-0.18-0.39-0.39-0.39
		h-1.1l-0.01,8.82h1.11c0.22,0,0.39-0.18,0.39-0.39v-2.6v0v-2.48l0,0c0-0.58,0.17-1.08,0.51-1.49c0.34-0.41,0.79-0.61,1.34-0.61
		c0.54,0,0.98,0.19,1.34,0.57c0.36,0.38,0.54,0.89,0.54,1.52c0,0.61-0.18,1.11-0.54,1.51c-0.35,0.39-0.8,0.58-1.33,0.59
		c-0.53,0-0.98-0.18-1.33-0.55c-0.02-0.02-0.04-0.05-0.07-0.07c-0.06,0.2-0.17,0.72,0.1,1.24c0.22,0.41,0.63,0.68,1.09,0.75
		c0.16,0.03,0.34,0.04,0.52,0.04c0.89,0,1.64-0.33,2.22-1c0.59-0.66,0.88-1.49,0.88-2.5C42.41,10.96,42.1,10.13,41.49,9.46z"/>
	<path class="st0" d="M18.8,4.15c-1.83-1.83-4.26-2.84-6.85-2.84c-2.59,0-5.02,1.01-6.85,2.84C3.27,5.98,2.26,8.41,2.26,11
		c0,2.59,1.01,5.02,2.84,6.85c1.83,1.83,4.26,2.84,6.85,2.84c2.59,0,5.02-1.01,6.85-2.84c1.83-1.83,2.84-4.26,2.84-6.85
		C21.64,8.41,20.63,5.98,18.8,4.15z M3.23,11.37c0.08-2.11,1.01-4.07,2.6-5.52c1.59-1.45,3.65-2.2,5.78-2.11
		c3.47,0.13,6.19,3.07,6.06,6.54c-0.05,1.31-0.6,2.52-1.55,3.42c-0.95,0.9-2.19,1.38-3.5,1.36h-0.09v0
		c-0.47-0.04-1.08-0.2-1.47-0.76c-0.02-0.03-0.04-0.07-0.07-0.1c0-0.01-0.01-0.01-0.01-0.02c-1.08-1.8,0.61-2.82,0.61-4.04
		c0-1.34-0.99-1.84-1.48-1.91c-1.96-0.29-2.52,1.65-2.6,2.4c-0.08,0.72,0.02,1.46,0.32,2.18c0.19,0.47,0.49,0.89,0.85,1.26l0,0
		c1.07,1.07,2.46,1.61,3.86,1.64c0.03,0,0.07,0,0.1,0l0,0c0.02,0,0.04,0,0.07,0c1.44,0,2.81-0.54,3.85-1.54
		c1.07-1.01,1.69-2.38,1.75-3.86c0.15-3.82-2.84-7.05-6.66-7.19c-0.11,0-0.23-0.01-0.34-0.01c-2.17,0-4.25,0.8-5.88,2.28
		C5.1,5.65,4.82,5.95,4.56,6.26c1.56-2.43,4.29-4.03,7.38-4.03c4.25,0,7.8,3.03,8.61,7.04c0.05,0.44,0.08,0.9,0.08,1.36
		c-0.08,2.11-1.01,4.07-2.6,5.52c-1.59,1.45-3.65,2.2-5.78,2.11c-3.47-0.13-6.19-3.07-6.06-6.54C6.25,10.42,6.8,9.2,7.75,8.3
		c0.95-0.9,2.19-1.38,3.5-1.36h0.09v0c0.47,0.04,1.08,0.2,1.47,0.76c0.02,0.03,0.04,0.07,0.07,0.1c0,0.01,0.01,0.01,0.01,0.02
		c1.08,1.8-0.61,2.82-0.61,4.04c0,1.34,0.99,1.84,1.48,1.91c1.96,0.29,2.52-1.65,2.6-2.4c0.08-0.72-0.02-1.46-0.32-2.18
		c-0.19-0.47-0.49-0.89-0.85-1.26l0,0c-1.07-1.07-2.46-1.61-3.86-1.64c-0.03,0-0.07,0-0.1,0l0,0c-0.02,0-0.04,0-0.07,0
		c-1.44,0-2.81,0.54-3.85,1.54c-1.07,1.01-1.69,2.38-1.75,3.86c-0.15,3.82,2.84,7.05,6.66,7.19c0.11,0,0.23,0.01,0.34,0.01
		c2.17,0,4.25-0.8,5.88-2.28c0.37-0.34,0.71-0.7,1.01-1.09c-1.54,2.55-4.33,4.25-7.52,4.25c-4.42,0-8.08-3.28-8.69-7.53
		C3.24,11.96,3.23,11.67,3.23,11.37z"/>
</g>
</svg>
