<svg width="24" height="22" viewBox="0 0 24 22" fill="none" xmlns="http://www.w3.org/2000/svg">
<path fill-rule="evenodd" clip-rule="evenodd" d="M4.99935 8.73317C6.5549 9.42947 8.44379 9.77762 10.666 9.77762C12.8882 9.77762 14.7771 9.42947 16.3327 8.73317C17.8882 8.03687 18.666 7.19984 18.666 6.22206C18.666 5.24428 17.8882 4.40724 16.3327 3.71095C14.7771 3.01465 12.8882 2.6665 10.666 2.6665C8.44379 2.6665 6.5549 3.01465 4.99935 3.71095C3.44379 4.40724 2.66602 5.24428 2.66602 6.22206C2.66602 7.19984 3.44379 8.03687 4.99935 8.73317ZM4.99935 13.1776C6.5549 13.8739 8.44379 14.2221 10.666 14.2221C11.6592 14.2221 12.5857 14.1525 13.4457 14.0134C13.6524 13.0254 14.1325 12.1378 14.8033 11.4334C14.1997 11.5971 13.5797 11.7228 12.9433 11.8105C12.0325 11.9367 11.2734 11.9998 10.666 11.9998C10.0586 11.9998 9.2995 11.9367 8.38868 11.8105C7.47727 11.6849 6.59935 11.4813 5.7549 11.1998C4.91046 10.9184 4.18453 10.5518 3.57713 10.1003C2.96972 9.64813 2.66602 9.09613 2.66602 8.44428V10.6665C2.66602 11.6443 3.44379 12.4813 4.99935 13.1776ZM18.0916 9.80819C18.2803 9.78798 18.4719 9.77762 18.666 9.77762V8.44428C18.666 8.96187 18.4745 9.41651 18.0916 9.80819ZM13.4396 16.1789C13.5966 16.9514 13.9206 17.6633 14.3723 18.2751C13.2618 18.536 12.0263 18.6665 10.666 18.6665C8.44379 18.6665 6.5549 18.3184 4.99935 17.6221C3.44379 16.9258 2.66602 16.0887 2.66602 15.1109V12.8887C2.66602 13.5406 2.96972 14.0926 3.57713 14.5447C4.18453 14.9963 4.91046 15.3628 5.7549 15.6443C6.59935 15.9258 7.47727 16.1296 8.38868 16.2558C9.2995 16.3815 10.0586 16.4443 10.666 16.4443C11.2734 16.4443 12.0325 16.3815 12.9433 16.2558C13.1099 16.2328 13.2753 16.2071 13.4396 16.1789Z" fill="white"/>
<mask id="mask0_590_12511" style="mask-type:alpha" maskUnits="userSpaceOnUse" x="13" y="9" width="12" height="12">
<rect x="13.334" y="9.77734" width="10.6667" height="10.6667" fill="#D9D9D9"/>
</mask>
<g mask="url(#mask0_590_12511)">
<path d="M18.6671 17.3327C18.793 17.3327 18.8987 17.29 18.984 17.2047C19.069 17.1196 19.1115 17.0142 19.1115 16.8882C19.1115 16.7623 19.069 16.6567 18.984 16.5713C18.8987 16.4863 18.793 16.4438 18.6671 16.4438C18.5412 16.4438 18.4357 16.4863 18.3507 16.5713C18.2653 16.6567 18.2227 16.7623 18.2227 16.8882C18.2227 17.0142 18.2653 17.1196 18.3507 17.2047C18.4357 17.29 18.5412 17.3327 18.6671 17.3327ZM18.2227 15.5549H19.1115V12.8882H18.2227V15.5549ZM18.6671 19.5549C18.0523 19.5549 17.4745 19.4382 16.9338 19.2047C16.393 18.9715 15.9227 18.6549 15.5227 18.2549C15.1227 17.8549 14.8061 17.3845 14.5729 16.8438C14.3394 16.3031 14.2227 15.7253 14.2227 15.1105C14.2227 14.4956 14.3394 13.9179 14.5729 13.3771C14.8061 12.8364 15.1227 12.366 15.5227 11.966C15.9227 11.566 16.393 11.2493 16.9338 11.0158C17.4745 10.7826 18.0523 10.666 18.6671 10.666C19.2819 10.666 19.8597 10.7826 20.4004 11.0158C20.9412 11.2493 21.4115 11.566 21.8115 11.966C22.2115 12.366 22.5281 12.8364 22.7613 13.3771C22.9948 13.9179 23.1115 14.4956 23.1115 15.1105C23.1115 15.7253 22.9948 16.3031 22.7613 16.8438C22.5281 17.3845 22.2115 17.8549 21.8115 18.2549C21.4115 18.6549 20.9412 18.9715 20.4004 19.2047C19.8597 19.4382 19.2819 19.5549 18.6671 19.5549Z" fill="white"/>
</g>
</svg>
