<svg width="24" height="22" viewBox="0 0 24 22" fill="none" xmlns="http://www.w3.org/2000/svg">
<path fill-rule="evenodd" clip-rule="evenodd" d="M4.99972 8.73335C6.55527 9.42965 8.44416 9.7778 10.6664 9.7778C12.8886 9.7778 14.7775 9.42965 16.333 8.73335C17.8886 8.03706 18.6664 7.20002 18.6664 6.22224C18.6664 5.24446 17.8886 4.40743 16.333 3.71113C14.7775 3.01484 12.8886 2.66669 10.6664 2.66669C8.44416 2.66669 6.55527 3.01484 4.99972 3.71113C3.44416 4.40743 2.66638 5.24446 2.66638 6.22224C2.66638 7.20002 3.44416 8.03706 4.99972 8.73335ZM4.99972 13.1778C6.55527 13.8741 8.44416 14.2222 10.6664 14.2222C11.6595 14.2222 12.5861 14.1527 13.4461 14.0136C13.6528 13.0256 14.1329 12.138 14.8037 11.4336C14.2 11.5973 13.58 11.723 12.9437 11.8107C12.0329 11.9369 11.2738 12 10.6664 12C10.059 12 9.29986 11.9369 8.38905 11.8107C7.47764 11.6851 6.59971 11.4815 5.75527 11.2C4.91083 10.9185 4.1849 10.552 3.57749 10.1005C2.97009 9.64832 2.66638 9.09632 2.66638 8.44446V10.6667C2.66638 11.6445 3.44416 12.4815 4.99972 13.1778ZM18.0919 9.80838C18.2806 9.78817 18.4723 9.7778 18.6664 9.7778V8.44446C18.6664 8.96206 18.4749 9.41669 18.0919 9.80838ZM13.44 16.179C13.597 16.9516 13.921 17.6634 14.3726 18.2753C13.2621 18.5362 12.0267 18.6667 10.6664 18.6667C8.44416 18.6667 6.55527 18.3185 4.99972 17.6222C3.44416 16.9259 2.66638 16.0889 2.66638 15.1111V12.8889C2.66638 13.5408 2.97009 14.0928 3.57749 14.5449C4.1849 14.9965 4.91083 15.363 5.75527 15.6445C6.59971 15.9259 7.47764 16.1298 8.38905 16.256C9.29986 16.3816 10.059 16.4445 10.6664 16.4445C11.2738 16.4445 12.0329 16.3816 12.9437 16.256C13.1103 16.233 13.2757 16.2073 13.44 16.179Z" fill="#C2C3E4"/>
<mask id="mask0_129_1753" style="mask-type:alpha" maskUnits="userSpaceOnUse" x="13" y="9" width="12" height="12">
<rect x="13.3336" y="9.77759" width="10.6667" height="10.6667" fill="#D9D9D9"/>
</mask>
<g mask="url(#mask0_129_1753)">
<path d="M18.667 17.3332C18.7929 17.3332 18.8985 17.2905 18.9839 17.2052C19.0689 17.1201 19.1114 17.0147 19.1114 16.8887C19.1114 16.7628 19.0689 16.6572 18.9839 16.5718C18.8985 16.4868 18.7929 16.4443 18.667 16.4443C18.5411 16.4443 18.4356 16.4868 18.3505 16.5718C18.2652 16.6572 18.2225 16.7628 18.2225 16.8887C18.2225 17.0147 18.2652 17.1201 18.3505 17.2052C18.4356 17.2905 18.5411 17.3332 18.667 17.3332ZM18.2225 15.5554H19.1114V12.8887H18.2225V15.5554ZM18.667 19.5554C18.0522 19.5554 17.4744 19.4387 16.9336 19.2052C16.3929 18.972 15.9225 18.6554 15.5225 18.2554C15.1225 17.8554 14.8059 17.385 14.5728 16.8443C14.3393 16.3035 14.2225 15.7258 14.2225 15.1109C14.2225 14.4961 14.3393 13.9184 14.5728 13.3776C14.8059 12.8369 15.1225 12.3665 15.5225 11.9665C15.9225 11.5665 16.3929 11.2498 16.9336 11.0163C17.4744 10.7831 18.0522 10.6665 18.667 10.6665C19.2818 10.6665 19.8596 10.7831 20.4003 11.0163C20.9411 11.2498 21.4114 11.5665 21.8114 11.9665C22.2114 12.3665 22.528 12.8369 22.7612 13.3776C22.9947 13.9184 23.1114 14.4961 23.1114 15.1109C23.1114 15.7258 22.9947 16.3035 22.7612 16.8443C22.528 17.385 22.2114 17.8554 21.8114 18.2554C21.4114 18.6554 20.9411 18.972 20.4003 19.2052C19.8596 19.4387 19.2818 19.5554 18.667 19.5554Z" fill="#C2C3E4"/>
</g>
</svg>
