<svg width="12" height="13" viewBox="0 0 12 13" fill="none" xmlns="http://www.w3.org/2000/svg">
<g clip-path="url(#clip0)">
<path fill-rule="evenodd" clip-rule="evenodd" d="M5.89999 12.3C6.06568 12.3 6.19999 12.1657 6.19999 12V0.8C6.19999 0.634315 6.06568 0.5 5.89999 0.5C5.73431 0.5 5.59999 0.634315 5.59999 0.8V12C5.59999 12.1657 5.73431 12.3 5.89999 12.3Z" fill="#DF4A2A"/>
<path fill-rule="evenodd" clip-rule="evenodd" d="M0.087868 6.61216C0.205025 6.72931 0.394975 6.72931 0.512132 6.61216L5.9 1.22429L11.2879 6.61216C11.405 6.72931 11.595 6.72931 11.7121 6.61216C11.8293 6.495 11.8293 6.30505 11.7121 6.18789L6.11213 0.587891C5.99498 0.470734 5.80503 0.470734 5.68787 0.587891L0.087868 6.18789C-0.0292893 6.30505 -0.0292893 6.495 0.087868 6.61216Z" fill="#DF4A2A"/>
</g>
<defs>
<clipPath id="clip0">
<rect width="12" height="12" fill="white" transform="translate(0 0.5)"/>
</clipPath>
</defs>
</svg>
