<svg width="12" height="13" viewBox="0 0 12 13" fill="none" xmlns="http://www.w3.org/2000/svg">
<g clip-path="url(#clip0)">
<path fill-rule="evenodd" clip-rule="evenodd" d="M5.89999 0.50078C6.06568 0.50078 6.19999 0.635095 6.19999 0.80078V12.0008C6.19999 12.1665 6.06568 12.3008 5.89999 12.3008C5.73431 12.3008 5.59999 12.1665 5.59999 12.0008V0.80078C5.59999 0.635095 5.73431 0.50078 5.89999 0.50078Z" fill="#007568"/>
<path fill-rule="evenodd" clip-rule="evenodd" d="M0.087868 6.18863C0.205025 6.07147 0.394975 6.07147 0.512132 6.18863L5.9 11.5765L11.2879 6.18863C11.405 6.07147 11.595 6.07147 11.7121 6.18863C11.8293 6.30578 11.8293 6.49573 11.7121 6.61289L6.11213 12.2129C5.99498 12.33 5.80503 12.33 5.68787 12.2129L0.087868 6.61289C-0.0292893 6.49573 -0.0292893 6.30578 0.087868 6.18863Z" fill="#007568"/>
</g>
<defs>
<clipPath id="clip0">
<rect width="12" height="12" fill="white" transform="translate(0 0.5)"/>
</clipPath>
</defs>
</svg>
